<svg width="100" height="100" xmlns="http://www.w3.org/2000/svg" aria-hidden="true" role="img" viewBox="0 0 100 100">
    <g>
        <title>Relax</title>
        <g stroke="null" id="svg_9">
            <rect stroke="null" x="1" y="1" width="62.86271" height="62.86271" fill="none" id="svg_1"/>
            <path stroke="null" d="m74.09706,76.21293c-17.62456,-1.10393 -22.37759,-5.28967 -40.11714,-5.28967s-30.03611,4.2394 -30.03611,4.2394s-0.40631,20.85969 0,21.26599c0.40631,0.40631 91.90988,0.13799 92.31618,-0.40631l0,-20.85969s-4.82203,2.13887 -22.16294,1.05027z" fill="#ead141" id="svg_2"/>
            <path stroke="null" d="m15.17477,85.72666c0,3.38845 10.0427,2.80582 24.53179,3.05114c13.00951,0.22232 25.26774,2.29986 37.03533,2.64483c8.02649,0.23765 14.99506,-1.02727 15.49336,-1.90888c1.91655,-3.40379 -20.45338,-10.0197 -40.49278,-11.37662s-36.5677,3.79476 -36.5677,7.58952z" fill="#e2c118" id="svg_3"/>
            <path stroke="null" d="m56.39584,16.51636l-3.38845,-1.6559l-6.89957,27.39127s-9.97371,36.82068 -10.43368,38.66823c-0.5903,2.36885 -0.51363,3.77943 1.57923,4.27006c2.09287,0.49064 2.6755,-1.52557 3.15847,-3.08947c0.48297,-1.5639 10.12703,-36.40671 10.12703,-36.40671l5.85696,-29.1775z" fill="#4495c4" id="svg_4"/>
            <path stroke="null" d="m55.54607,10.96604s-17.54789,-4.92936 -33.20991,2.73683c-12.63387,6.17128 -17.26425,15.34003 -16.68928,15.68501c0.97361,0.58263 3.96342,0.34498 6.36293,2.70616c2.39952,2.36118 3.91742,6.24794 4.87569,6.63892c0.95827,0.38331 5.34333,-1.09626 10.0197,1.62523s6.40893,7.4362 7.45153,7.85784c1.0426,0.42164 6.46259,-2.66783 13.00185,-0.40631c5.96429,2.0622 9.86638,6.12528 10.70199,6.36293c0.83561,0.24532 5.00602,-3.35012 11.92092,-2.70616s8.73178,2.75983 9.61339,3.11247c0.88161,0.35264 2.07754,-3.43445 6.15595,-3.89442c3.97875,-0.4523 5.06735,0.52897 6.08695,0.75129c1.02727,0.22999 0.88928,-12.83319 -12.28123,-26.31801c-9.85871,-10.10403 -24.01049,-14.15178 -24.01049,-14.15178z" fill="#ef3b3b" id="svg_5"/>
            <path stroke="null" d="m55.5449,12.77526s-11.37662,-2.47618 -23.79583,6.3936c-10.15769,7.25988 -13.98312,15.48569 -13.74547,16.05299c0.23765,0.55963 4.66871,0.19932 8.99243,2.40718s6.76924,7.06056 7.29821,6.37826c0.66696,-0.85861 3.1508,-10.40301 7.25221,-17.14925c7.68918,-12.6492 13.79913,-13.40816 13.79913,-13.40816s5.31267,3.31946 5.79563,18.11519c0.26832,8.11082 -1.80155,18.30685 -1.5869,19.45677c0.09199,0.50597 3.6491,-2.24619 9.4754,-1.97788c5.282,0.24532 9.36041,2.56817 10.05037,2.46851s-0.65163,-13.99845 -6.74624,-24.03349c-6.8919,-11.32295 -16.78894,-14.70374 -16.78894,-14.70374z" fill="#fefefe" id="svg_6"/>
            <path stroke="null" d="m57.72976,5.1704c-2.26919,-0.57496 -2.85182,2.85182 -3.42678,4.7607c-0.26065,0.84328 -1.34158,4.05541 0.88928,4.75303c1.85522,0.58263 2.56051,-1.90888 3.11247,-3.73343c0.5443,-1.83222 1.80922,-5.18234 -0.57496,-5.7803z" fill="#4495c4" id="svg_7"/>
            <path stroke="null" fill="#ead141" opacity="NaN" d="m30.13141,77.91795l4.34441,-4.59996" id="svg_8"/>
        </g>
    </g>
</svg>
